PathFileType	4	(X/Y/Z)	Walk3.trc
DataRate	CameraRate	NumFrames	NumMarkers	Units	OrigDataRate	OrigDataStartFrame	OrigNumFrames
200.000000	200.000000	4	56	mm	200.000000	421	604
Frame#	Times		RFA1		RUA1		RACR1		LFA1		RBHD		RASI		C7		RTH2		RTH3		RElbow		LElbowM		RTB1		RTB3		RWRU		RTH4		RLFC		RTH1		LACR1		RTB2		RMT1		RCAR		RMT5		RTB4		LElbow		LTH2		LTH3		LTH4		LWRU		LPSI		RPSI		LTB1		LLFC		T10		RWRR		LTH1		LBHD		LWRR		LTB3		LTB2		LFHD		LMT1		RBack		LCAL		LTB4		LLMAL		CLAV		LMMAL		RElbowM		LToe		LMT5		RMMAL		RLMAL		LCAR		LUA1		RCAL		RToe
			X1	Y1	Z1	X2	Y2	Z2	X3	Y3	Z3	X4	Y4	Z4	X5	Y5	Z5	X6	Y6	Z6	X7	Y7	Z7	X8	Y8	Z8	X9	Y9	Z9	X10	Y10	Z10	X11	Y11	Z11	X12	Y12	Z12	X13	Y13	Z13	X14	Y14	Z14	X15	Y15	Z15	X16	Y16	Z16	X17	Y17	Z17	X18	Y18	Z18	X19	Y19	Z19	X20	Y20	Z20	X21	Y21	Z21	X22	Y22	Z22	X23	Y23	Z23	X24	Y24	Z24	X25	Y25	Z25	X26	Y26	Z26	X27	Y27	Z27	X28	Y28	Z28	X29	Y29	Z29	X30	Y30	Z30	X31	Y31	Z31	X32	Y32	Z32	X33	Y33	Z33	X34	Y34	Z34	X35	Y35	Z35	X36	Y36	Z36	X37	Y37	Z37	X38	Y38	Z38	X39	Y39	Z39	X40	Y40	Z40	X41	Y41	Z41	X42	Y42	Z42	X43	Y43	Z43	X44	Y44	Z44	X45	Y45	Z45	X46	Y46	Z46	X47	Y47	Z47	X48	Y48	Z48	X49	Y49	Z49	X50	Y50	Z50	X51	Y51	Z51	X52	Y52	Z52	X53	Y53	Z53	X54	Y54	Z54	X55	Y55	Z55	X56	Y56	Z56

421	2.105	343.97	1002.4	577.24	222.96	1210.8	521.14	232.8	1386.7	414.21	66.712	940.08	-25.825	171.02	1557.5	330.18	239.95	916.42	419.48	151.26	1422.9	273.63	194.75	620.07	419.66	106.61	538.61	437.94	216.71	1087.3	577.06	33.319	1087.4	105.37	36.64	341.33	342.71	-92.745	201.79	348.88	424.05	905.11	555.22	130	628.64	452.41	70.661	439.68	425.11	151.56	721.53	459.99	167.66	1399	94.622	-29.868	275.93	420.57	-115.35	37.547	302.66	492.77	903.64	552.3	-132.27	39.012	391.31	-24.74	272.67	345.8	38.755	1087.4	26.843	343.64	683.62	104.65	320.79	570.58	91.941	279.66	649.45	75.615	13.663	831.57	-17.348	66.373	944.12	206.9	60.956	945.19	311.52	425.12	384.87	168.77	363.78	463.94	109.67	57.029	1114.4	271.27	464.71	958.39	514.96	235.93	737.27	70.393	170.61	1556.3	191.73	92.963	819.37	-0.083441	431.56	199.83	181.1	397.78	286.58	109.37	351.06	1594.8	214.23	542.76	41.84	222.88	92.021	1334	382.16	333.56	29.284	208.8	427.22	291.93	174.88	375.26	70.056	159.86	286.73	1343.5	247.53	410.73	92.222	242.26	194.38	1037.8	491.76	583.81	48.693	203.52	511.49	33.379	142.26	-179.13	154.53	308.21	-201.52	155.53	397.27	64.047	771.04	-45.686	91.056	1206	22.634	-271.62	146.03	359.81	-65.269	24.934	318.32
422	2.11	348.9	1002.4	576.22	229.34	1211.8	519.98	240.24	1387.7	413.08	74.065	940.38	-26.477	178.04	1558.2	328.82	247.22	917.35	418.07	158.62	1423.8	272.37	204.38	620.24	418.68	117.69	537.45	437.24	221.87	1088.6	576.01	41.018	1087.9	104.97	47.195	340.53	342.98	-84.975	203.36	349.16	428.27	904.12	554.26	139.37	627.84	451.45	82.21	438.52	425.11	159.85	721.24	458.78	175.06	1399.6	93.388	-21.081	277.07	420.93	-114.08	37.643	302.54	496.62	902.61	552.11	-130.45	40.302	390.82	-15.468	272.94	346.16	46.477	1087.7	26.058	350.15	684.9	103.53	327.99	571.64	91.099	286.27	650.23	74.845	20.452	831.87	-17.799	73.645	944.61	206.43	67.949	945.71	310.86	431.18	384.34	167.92	370.37	464.17	109.51	64.235	1115.3	270.93	469.08	957.11	514.14	242.41	737.7	68.825	177.57	1556.7	190.29	99.84	819.48	-0.48816	434.26	198.93	181.05	401.54	286.15	109.07	358.09	1595.6	212.91	543.44	41.1	223.94	99.165	1335	381.11	333.86	29.435	208.78	431.7	291.27	174.37	376.27	70.163	159.91	294.07	1344.1	246.57	411.63	92.015	242.39	200	1038.9	490.55	585.31	46.554	204.71	512.31	32.979	141.76	-171.45	157.78	308.12	-195.09	160.43	396.58	70.675	771.1	-46.203	98.549	1206.3	21.805	-264.73	153.17	358.55	-65.279	24.861	318.8
423	2.115	353.56	1002.3	575.37	235.57	1212.8	519.05	247.94	1388.5	411.93	81.39	940.59	-27.104	185.1	1558.9	327.18	254.36	917.98	417.08	165.7	1424.5	271.18	214.3	620.18	418.13	128.87	536.11	436.58	227.34	1089.4	574.66	48.718	1088.2	104.64	58.514	339.7	343.1	-76.595	204.88	349.38	432.23	903.24	553.48	148.95	627	450.44	94.562	437.51	424.75	168.01	720.62	457.61	182.77	1399.8	92.313	-11.662	278.25	420.95	-112.73	37.579	301.88	500.31	900.93	551.52	-129.23	41.853	390.41	-5.5246	273.48	346.62	54.273	1088.3	24.906	356.95	685.82	102.27	334.63	572.24	90.404	292.89	650.82	74.175	27.441	832.4	-18.428	80.864	945.32	205.92	74.931	945.97	310.53	436.78	383.79	167.31	376.31	464.4	109.17	71.015	1116.2	270.48	473.46	956.03	513.54	249.08	738.18	67.746	184.84	1557.1	188.9	106.84	819.83	-1.1099	436.75	198.47	181.05	405.04	285.8	108.92	364.96	1596.7	211.56	544.11	40.099	224.55	106.51	1336.2	379.95	334.08	29.515	208.8	435.62	290.71	174.16	376.82	70.415	160.09	301.38	1344.6	245.53	412.19	91.95	242.73	205.34	1040.2	489.36	586.49	43.784	205.01	512.73	32.696	141.52	-163.12	161.22	307.81	-187.69	165.11	395.72	77.629	771.58	-46.651	106.21	1206.6	20.972	-256.79	160.31	357.22	-65.217	24.996	319.43
424	2.12	358.1	1002.2	574.4	242.1	1213.6	518.12	255.14	1389.4	410.86	88.939	941.03	-27.64	192.02	1559.6	325.72	260.6	918.71	416.23	172.93	1425.6	270.32	224.26	620.59	417.46	140.45	534.83	436.18	232.45	1090.3	573.84	56.716	1088.7	103.99	70.124	338.72	343.32	-67.163	206.61	349.38	435.72	902.37	552.67	158.94	626.4	449.53	106.78	436.75	424.41	176.1	720.21	456.43	190.4	1400.5	91.425	-1.5615	279.3	420.69	-111.38	38.321	301.08	504.06	899.05	550.2	-126.9	43.788	389.58	4.7146	273.46	346.29	62.081	1089	24.21	363.95	686.45	100.98	341.44	572.85	89.267	299.62	651.33	73.653	34.78	833.12	-18.907	88.133	946.06	205.26	81.978	946.28	309.92	441.89	383.24	166.75	381.25	464.53	109.06	77.975	1117	269.93	477.66	954.77	512.85	255.69	738.55	66.847	192.03	1557.5	187.49	113.86	820.18	-1.6935	438.83	198.05	181.31	408.2	285.46	109.07	371.98	1597.5	210.35	544.76	39.346	225.03	113.86	1337.7	378.85	334.45	29.558	209.13	439.13	290.17	174.06	377.2	70.816	160.54	308.66	1345.5	244.76	412.5	92.093	243.3	210.28	1041.5	488.06	587.82	41.656	205.71	513.14	32.576	141.38	-154.43	164.63	307.61	-179.65	169.81	395.34	84.598	772	-47.366	113.75	1206.9	20.171	-248.02	167.39	355.94	-65.297	25.061	320.79
